<?xml version="1.0" encoding="utf-8"?>
<?xml-stylesheet type="text/xsl" href="rss1.xsl"?>
<rss version="2.0" xmlns:atom="http://www.w3.org/2005/Atom" xmlns:content="http://purl.org/rss/1.0/modules/content/" xmlns:dc="http://purl.org/dc/elements/1.1/" xmlns:media="http://search.yahoo.com/mrss/">
<channel>
 <title>Getty</title>
 <link>http://www.gettyimg.com/</link>
 <atom:link href="http://www.gettyimg.com/" rel="self" type="application/rss+xml" />

 
                <item>
                <title><![CDATA[【Music Videos】Bob Marley - No Woman, No Cry [4K HEVC 10-bit | PCM 24-bit 96 kHz | DD+ Dolby Atmos]]]></title>
                <link><![CDATA[https://sharemania.us/threads/bob-marley-no-woman-no-cry-4k-hevc-10-bit-pcm-24-bit-96-khz-dd-dolby-atmos.230822/]]></link>
                <description><![CDATA[<article>
<blockquote class="messageText SelectQuoteContainer ugc baseHtml">
<b><img src="https://images2.imgbox.com/53/4c/eyHBw3eh_o.jpg" class="bbCodeImage LbImage" alt="[​IMG]" data-url="https://images2.imgbox.com/53/4c/eyHBw3eh_o.jpg" style=""> <br>
<br>
Genre: <span style="color: #0059b3">Reggae</span> <br>
Style: <span style="color: #0059b3">Roots Reggae</span> <br>
Year: <span style="color: #0059b3">1975</span> <br>
Video Source: <span style="color: #0059b3">Vimeo, 4K WebMaster, Directors Cut</span><br>
Audio Source: <span style="color: #0059b3">Qobuz &amp; Amazon Music, thanks Yennefer</span></b><br>
<br>
"<b>No Woman, No Cry</b>" is a reggae song by Bob Marley and the Wailers. The song was recorded in 1974 and released on the studio album <i>Natty Dread</i>.<br>
The live recording of this song from the 1975 album <i>Live!</i> was released as a single and is the best-known version; it was later included on several compilation albums, including the greatest hits compilation <i>Legend</i>. It was recorded at the Lyceum Theatre in London on 17 July 1975 as part of his <i>Natty Dread Tour</i>. The live version ranked No. 37 on <i>Rolling Stone</i>'s 500 Greatest Songs of All Time.<br>
<br>
Although Bob Marley is widely believed to have written the song (the lyrics are highly personal and mention Georgie making cornmeal porridge, Marley's favourite dish), or at least the melody, songwriting credit was given to Vincent Ford, a friend of Marley's who ran a soup kitchen in Trenchtown, the ghetto of Kingston, Jamaica, where Marley grew up (he specifically mentions the Government Yards of Trench Town, a public housing project). The royalty payments received by Ford ensured his efforts would continue. The original studio version of the song used a drum machine. The title and main refrain, "No Woman, No Cry", means "Woman, don't cry". The lyric is sometimes misunderstood outside Jamaica to mean "if there is no woman, there is no reason to cry". The lyric is rendered "No, woman, nuh cry" in Jamaican Patois. The "nuh" is pronounced with a short schwa vowel (a "mumbled" vowel, often represented as "uh" in spelling) and represents a clitic ("weakened") form of "no".<br>
<br>
The music video was released on July 1, 2020, in honor of International Reggae Day. International Reggae Day is an annual event held in Kingston, Jamaica, and is dedicated to celebrating reggae culture and its influence on Jamaican music.<br>
Directed by Kristian Mercado Figueroa, the seven-minute visual depicts a family divided by country, with a mother struggling to raise her children on her own in Jamaica and a father working tirelessly as a taxi driver in New York in order to provide for his family back home. It’s a stirring depiction of how poverty also forces loved ones apart in order to make ends meet.<br>
<br>
<b>Release Info</b><br>
The video track is downloaded from Vimeo (Directors Cut) and converted to HEVC 10-bit.<br>
The PCM track is lossless (Qobuz Hi-Res 24-bit 96 kHz) synced with Adobe Audition.<br>
The Dolby Atmos track is lossy (E-AC3), synced to the video track by muxing.<br>
The timed lyrics are synced &amp; edited. Enable the subtitles to see the lyrics.<br>
<br>
<div class="ToggleTriggerAnchor bbCodeSpoilerContainer">
<button type="button" class="button bbCodeSpoilerButton ToggleTrigger Tooltip JsOnly" data-target="> .SpoilerTarget"><span>Spoiler: <span class="SpoilerTitle">Media Info</span></span></button>
<div class="SpoilerTarget bbCodeSpoilerText">
<div class="bbCodeBlock bbCodeCode">
<div class="type">Code:</div>
<pre>General
Unique ID                      : 24006276912306791344769190209150117051 (0x120F70D5605F899990737F853DD9E4BB)
Complete name                  : Bob Marley - No Woman, No Cry.mkv
Format                         : Matroska
Format version                 : Version 4 / Version 2
File size                      : 1.12 GiB
Duration                       : 7 min 23 s
Overall bit rate               : 21.7 Mb/s
Frame rate                     : 23.976 FPS
Encoded date                   : 2023-10-19 16:01:11 UTC
Writing application            : mkvmerge v79.0 ('Funeral Pyres') 64-bit
Writing library                : libebml v1.4.4 + libmatroska v1.7.1

Video
ID                             : 1
Format                         : HEVC
Format/Info                    : High Efficiency Video Coding
Format profile                 : Main 10@L5@Main
Codec ID                       : V_MPEGH/ISO/HEVC
Duration                       : 7 min 23 s
Bit rate                       : 16.3 Mb/s
Width                          : 4 096 pixels
Height                         : 1 536 pixels
Display aspect ratio           : 2.667
Frame rate mode                : Constant
Frame rate                     : 23.976 (24000/1001) FPS
Color space                    : YUV
Chroma subsampling             : 4:2:0 (Type 0)
Bit depth                      : 10 bits
Bits/(Pixel*Frame)             : 0.108
Stream size                    : 863 MiB (75%)
Writing library                : x265 3.5+1-f0c1022b6:[Windows][GCC 10.2.0][64 bit] 10bit
Encoding settings              : cpuid=1111039 / frame-threads=5 / numa-pools=32 / wpp / no-pmode / no-pme / no-psnr / no-ssim / log-level=2 / input-csp=1 / input-res=4096x1536 / interlace=0 / total-frames=0 / level-idc=0 / high-tier=1 / uhd-bd=0 / ref=4 / no-allow-non-conformance / no-repeat-headers / annexb / no-aud / no-eob / no-eos / no-hrd / info / hash=0 / no-temporal-layers / open-gop / min-keyint=24 / keyint=240 / gop-lookahead=0 / bframes=4 / b-adapt=2 / b-pyramid / bframe-bias=0 / rc-lookahead=25 / lookahead-slices=4 / scenecut=40 / no-hist-scenecut / radl=0 / no-splice / no-intra-refresh / ctu=64 / min-cu-size=8 / rect / no-amp / max-tu-size=32 / tu-inter-depth=1 / tu-intra-depth=1 / limit-tu=0 / rdoq-level=2 / dynamic-rd=0.00 / no-ssim-rd / signhide / no-tskip / nr-intra=0 / nr-inter=0 / no-constrained-intra / strong-intra-smoothing / max-merge=3 / limit-refs=3 / limit-modes / me=3 / subme=3 / merange=57 / temporal-mvp / no-frame-dup / no-hme / weightp / no-weightb / no-analyze-src-pics / deblock=0:0 / sao / no-sao-non-deblock / rd=4 / selective-sao=4 / no-early-skip / rskip / no-fast-intra / no-tskip-fast / no-cu-lossless / no-b-intra / no-splitrd-skip / rdpenalty=0 / psy-rd=2.00 / psy-rdoq=1.00 / no-rd-refine / no-lossless / cbqpoffs=0 / crqpoffs=0 / rc=crf / crf=20.0 / qcomp=0.60 / qpstep=4 / stats-write=0 / stats-read=0 / ipratio=1.40 / pbratio=1.30 / aq-mode=2 / aq-strength=1.00 / cutree / zone-count=0 / no-strict-cbr / qg-size=32 / no-rc-grain / qpmax=69 / qpmin=0 / no-const-vbv / sar=1 / overscan=0 / videoformat=5 / range=0 / colorprim=1 / transfer=1 / colormatrix=1 / chromaloc=1 / chromaloc-top=0 / chromaloc-bottom=0 / display-window=0 / cll=0,0 / min-luma=0 / max-luma=1023 / log2-max-poc-lsb=8 / vui-timing-info / vui-hrd-info / slices=1 / no-opt-qp-pps / no-opt-ref-list-length-pps / no-multi-pass-opt-rps / scenecut-bias=0.05 / no-opt-cu-delta-qp / no-aq-motion / no-sbrc / no-hdr10 / no-hdr10-opt / no-dhdr10-opt / no-idr-recovery-sei / analysis-reuse-level=0 / analysis-save-reuse-level=0 / analysis-load-reuse-level=0 / scale-factor=0 / refine-intra=0 / refine-inter=0 / refine-mv=1 / refine-ctu-distortion=0 / no-limit-sao / ctu-info=0 / no-lowpass-dct / refine-analysis-type=0 / copy-pic=1 / max-ausize-factor=1.0 / no-dynamic-refine / no-single-sei / no-hevc-aq / no-svt / no-field / qp-adaptation-range=1.00 / scenecut-aware-qp=0conformance-window-offsets / right=0 / bottom=0 / decoder-max-rate=0 / no-vbv-live-multi-pass / no-mcstf
Default                        : Yes
Forced                         : No
Color range                    : Limited
Color primaries                : BT.709
Transfer characteristics       : BT.709
Matrix coefficients            : BT.709

Audio #1
ID                             : 2
Format                         : PCM
Format settings                : Little / Signed
Codec ID                       : A_PCM/INT/LIT
Duration                       : 7 min 23 s
Bit rate mode                  : Constant
Bit rate                       : 4 608 kb/s
Channel(s)                     : 2 channels
Sampling rate                  : 96.0 kHz
Frame rate                     : 25.002 FPS (3840 SPF)
Bit depth                      : 24 bits
Stream size                    : 244 MiB (21%)
Title                          : Lossless 24-bit 96 kHz
Language                       : English
Default                        : Yes
Forced                         : No

Audio #2
ID                             : 3
Format                         : E-AC-3 JOC
Format/Info                    : Enhanced AC-3 with Joint Object Coding
Commercial name                : Dolby Digital Plus with Dolby Atmos
Codec ID                       : A_EAC3
Duration                       : 7 min 9 s
Bit rate mode                  : Constant
Bit rate                       : 768 kb/s
Channel(s)                     : 6 channels
Channel layout                 : L R C LFE Ls Rs
Sampling rate                  : 48.0 kHz
Frame rate                     : 31.250 FPS (1536 SPF)
Compression mode               : Lossy
Delay relative to video        : 3 s 829 ms
Stream size                    : 39.3 MiB (3%)
Title                          : Dolby Digital Plus with Dolby Atmos
Language                       : English
Service kind                   : Complete Main
Default                        : No
Forced                         : No
Complexity index               : 16
Number of dynamic objects      : 15
Bed channel count              : 1 channel
Bed channel configuration      : LFE

Text
ID                             : 4
Format                         : UTF-8
Codec ID                       : S_TEXT/UTF8
Codec ID/Info                  : UTF-8 Plain Text
Duration                       : 5 min 38 s
Bit rate                       : 39 b/s
Frame rate                     : 0.174 FPS
Count of elements              : 59
Stream size                    : 1.65 KiB (0%)
Title                          : Lyrics
Language                       : English
Default                        : No
Forced                         : No
</pre>
</div></div>
</div><br>
<div class="bbCodeBlock bbCodeVfcHH HiddenContent">
<div class="attribution type">Hidden Content:</div>
<blockquote>You must reply before you can see the hidden data contained here.</blockquote>
</div>
<div class="messageTextEndMarker">&nbsp;</div>
</blockquote>
</article>]]></description>
                <author><![CDATA[ADHDerby]]></author>
                </item>

                </channel></rss>